<svg width="200" height="200" viewBox="0 0 40 40" fill="none" xmlns="http://www.w3.org/2000/svg">
<path d="M18.3333 11.6667H21.6666V23.3333H18.3333V11.6667ZM18.3333 25H21.6666V28.3333H18.3333V25Z" fill="#FF0202"/>
<path d="M18.7986 5.04451C11.501 5.59433 5.60287 11.4924 5.05304 18.7901C4.80312 21.6891 5.45291 24.4882 6.65253 26.8375C6.85246 27.1374 7.25233 27.2373 7.50225 26.9874C7.6522 26.8375 7.70219 26.5875 7.60222 26.3876C6.50257 24.3383 5.90277 21.939 6.00274 19.4398C6.30264 12.1422 12.2507 6.24412 19.5484 5.9942C28.0456 5.74428 34.9434 13.0919 33.8437 21.7891C33.044 28.137 27.8956 33.1854 21.5477 33.8852C18.4487 34.2351 15.4997 33.5353 13.0005 32.0858C12.8005 31.9858 12.5506 31.9858 12.4007 32.1857C12.1507 32.4356 12.2007 32.7855 12.5006 32.9855C15.0998 34.485 18.1988 35.2347 21.4977 34.9348C28.6454 34.2351 34.3436 28.387 34.8934 21.2393C35.6431 11.9923 27.9956 4.34473 18.7986 5.04451Z" fill="#FF0202"/>
<path d="M10.0515 30.8362C10.7968 30.8362 11.401 30.2319 11.401 29.4866C11.401 28.7413 10.7968 28.137 10.0515 28.137C9.30612 28.137 8.7019 28.7413 8.7019 29.4866C8.7019 30.2319 9.30612 30.8362 10.0515 30.8362Z" fill="#FF0202"/>
</svg>
