<svg width="200" height="200" viewBox="0 0 58 58" fill="none" xmlns="http://www.w3.org/2000/svg">
<path d="M29 0C13.0117 0 0 13.0117 0 29C0 44.9883 13.0117 58 29 58C44.9883 58 58 44.9883 58 29C58 13.0117 44.9883 0 29 0ZM29 2C43.8867 2 56 14.1133 56 29C56 43.8867 43.8867 56 29 56C14.1133 56 2 43.8867 2 29C2 14.1133 14.1133 2 29 2ZM28.5625 6.00781C22.6719 6.12891 16.9609 8.50781 12.7344 12.7344C3.76953 21.7031 3.76953 36.293 12.7344 45.2617C12.9297 45.457 13.1875 45.5547 13.4414 45.5547C13.6992 45.5547 13.957 45.457 14.1523 45.2617C14.543 44.8711 14.543 44.2383 14.1523 43.8477C5.96094 35.6602 5.96484 22.3398 14.1523 14.1523C18.8984 9.40234 25.6992 7.19922 32.3398 8.26562C32.8828 8.35547 33.3945 7.98047 33.4844 7.4375C33.5742 6.89062 33.1992 6.375 32.6562 6.28906C31.2891 6.07031 29.9219 5.98047 28.5625 6.00781ZM36.6602 7.38672C36.2695 7.40234 35.9102 7.64844 35.7656 8.03516C35.5703 8.55469 35.832 9.12891 36.3516 9.32422C37.0625 9.58984 37.7656 9.89453 38.4531 10.2383C38.5977 10.3125 38.75 10.3477 38.9023 10.3477C39.2656 10.3477 39.6172 10.1484 39.7969 9.79688C40.043 9.30859 39.8438 8.70312 39.3516 8.45312C38.6055 8.07812 37.8281 7.73828 37.0508 7.44531C36.9219 7.39844 36.7891 7.38281 36.6602 7.38672ZM42.4336 10.6758C42.1797 10.707 41.9375 10.8359 41.7656 11.0508C41.4258 11.4883 41.5 12.1133 41.9375 12.4531C42.6055 12.9766 43.25 13.5508 43.8477 14.1523C52.0391 22.3398 52.0391 35.6602 43.8477 43.8477C43.457 44.2422 43.457 44.8711 43.8477 45.2656C44.043 45.457 44.3008 45.5586 44.5586 45.5586C44.8125 45.5586 45.0703 45.457 45.2656 45.2656C54.2305 36.2969 54.2305 21.7031 45.2656 12.7344C44.6055 12.0781 43.9023 11.4531 43.1719 10.8789C42.9531 10.7109 42.6836 10.6445 42.4336 10.6758ZM41 20C40.7461 20 40.4883 20.0977 40.293 20.293L26 34.5859L18.707 27.293C18.3164 26.9023 17.6836 26.9023 17.293 27.293C16.9023 27.6836 16.9023 28.3164 17.293 28.707L25.293 36.707C25.4883 36.9023 25.7422 37 26 37C26.2578 37 26.5117 36.9023 26.707 36.707L41.707 21.707C42.0977 21.3164 42.0977 20.6836 41.707 20.293C41.5117 20.0977 41.2539 20 41 20ZM19.375 45.3945C18.9844 45.3477 18.5898 45.5273 18.3867 45.8867L17.3867 47.6172C17.1094 48.0977 17.2734 48.707 17.75 48.9844C17.9062 49.0742 18.0781 49.1172 18.25 49.1172C18.5938 49.1172 18.9297 48.9375 19.1133 48.6172L20.1133 46.8867C20.3906 46.4102 20.2305 45.7969 19.75 45.5195C19.6289 45.4531 19.5 45.4102 19.375 45.3945ZM38.625 45.3945C38.4961 45.4102 38.3672 45.4531 38.25 45.5195C37.7695 45.7969 37.6094 46.4102 37.8867 46.8906L38.8867 48.6211C39.0703 48.9414 39.4062 49.1211 39.75 49.1211C39.9219 49.1211 40.0938 49.0742 40.25 48.9844C40.7305 48.707 40.8906 48.0977 40.6133 47.6211L39.6133 45.8906C39.4062 45.5312 39.0117 45.3477 38.625 45.3945ZM23.8164 47.3438C23.4297 47.3984 23.0938 47.6758 22.9844 48.0781L22.4688 50.0117C22.3242 50.543 22.6445 51.0898 23.1758 51.2344C23.2617 51.2578 23.3477 51.2656 23.4375 51.2656C23.875 51.2656 24.2812 50.9727 24.4023 50.5273L24.9219 48.5938C25.0625 48.0625 24.7461 47.5117 24.2148 47.3711C24.082 47.332 23.9453 47.3281 23.8164 47.3438ZM34.1875 47.3438C34.0586 47.3281 33.9219 47.332 33.7852 47.3711C33.2539 47.5117 32.9375 48.0625 33.0781 48.5938L33.5977 50.5273C33.7188 50.9727 34.1211 51.2656 34.5625 51.2656C34.6523 51.2656 34.7383 51.2578 34.8242 51.2344C35.3555 51.0898 35.6758 50.543 35.5312 50.0117L35.0156 48.0781C34.9062 47.6758 34.5703 47.3984 34.1875 47.3438ZM29 48C28.4453 48 28 48.4453 28 49V51C28 51.5547 28.4453 52 29 52C29.5547 52 30 51.5547 30 51V49C30 48.4453 29.5547 48 29 48Z" fill="#27FF2F"/>
</svg>
